<svg version="1.1" xmlns="http://www.w3.org/2000/svg" xmlns:xlink="http://www.w3.org/1999/xlink" xml:space="preserve" width="30px" height="30px" viewBox="0 0 30 30" preserveAspectRatio="xMidYMid meet">
<g id="">
	<path fill-rule="evenodd" clip-rule="evenodd" fill="#FFFFFF" d="M5.919,3.062c-1.595,0-2.876,1.291-2.876,2.876
				c0,1.586,1.281,2.877,2.876,2.877c1.586,0,2.876-1.291,2.876-2.877C8.796,4.353,7.505,3.062,5.919,3.062z M3.431,26.938H8.39
				V10.99H3.431V26.938z M21.011,10.603c-2.415,0-4.028,1.318-4.692,2.572h-0.064V10.99h-4.748l0.01,15.948h4.95v-7.892
				c0-2.074,0.388-4.093,2.969-4.093c2.544,0,2.572,2.378,2.572,4.231v7.753h4.95v-8.739C26.957,13.903,26.025,10.603,21.011,10.603
				z"/>
</g>
</svg>