<?xml version="1.0" encoding="utf-8"?>
<!DOCTYPE svg PUBLIC "-//W3C//DTD SVG 1.1//EN" "http://www.w3.org/Graphics/SVG/1.1/DTD/svg11.dtd">
<svg version="1.1" xmlns="http://www.w3.org/2000/svg" xmlns:xlink="http://www.w3.org/1999/xlink" x="0px" y="0px" width="30px"
	 height="30px" viewBox="0 0 30 30" enable-background="new 0 0 30 30" xml:space="preserve">
	<g id="odnoklassniki">
		<path fill-rule="evenodd" clip-rule="evenodd" fill="#ffffff" d="M14.922,15.404c3.574,0,6.48-2.905,6.48-6.478
				c0-3.574-2.906-6.48-6.48-6.48c-3.573,0-6.48,2.906-6.48,6.48C8.442,12.499,11.349,15.404,14.922,15.404z M14.922,6.244
				c1.479,0,2.683,1.203,2.683,2.683c0,1.479-1.203,2.682-2.683,2.682c-1.479,0-2.683-1.203-2.683-2.682
				C12.239,7.447,13.443,6.244,14.922,6.244z M21.165,24.313l-3.622-3.624c1.333-0.304,2.605-0.83,3.763-1.558
				c0.888-0.559,1.154-1.73,0.596-2.617c-0.557-0.888-1.728-1.155-2.615-0.599c-0.001,0.001-0.001,0.001-0.002,0.002
				c-2.655,1.669-6.071,1.667-8.725,0c-0.886-0.559-2.057-0.293-2.615,0.594c0,0.001-0.001,0.002-0.002,0.003
				c-0.558,0.887-0.292,2.059,0.595,2.617c1.157,0.728,2.429,1.254,3.762,1.558l-3.623,3.623c-0.741,0.742-0.741,1.944,0,2.686
				c0.742,0.741,1.944,0.741,2.685-0.001l3.559-3.56l3.562,3.561c0.739,0.74,1.94,0.741,2.681,0.002
				c0.001-0.001,0.001-0.002,0.002-0.002c0.741-0.739,0.743-1.939,0.004-2.681C21.168,24.316,21.167,24.314,21.165,24.313z"/>
	</g>
</svg>
