<?xml version="1.0" encoding="utf-8"?>
<!DOCTYPE svg PUBLIC "-//W3C//DTD SVG 1.1//EN" "http://www.w3.org/Graphics/SVG/1.1/DTD/svg11.dtd">
<svg version="1.1" xmlns="http://www.w3.org/2000/svg" xmlns:xlink="http://www.w3.org/1999/xlink" x="0px" y="0px" width="30px"
	 height="30px" viewBox="0 0 30 30" enable-background="new 0 0 30 30" xml:space="preserve">
	<g id="vkontakte">
		<path fill-rule="evenodd" clip-rule="evenodd" fill="#ffffff" d="M25.511,18.205c-0.611-0.815-1.608-1.698-1.925-2.106
				c-0.453-0.476-0.317-0.748,0-1.246c0,0,3.42-4.825,3.76-6.411c0.113-0.565-0.136-0.883-0.725-0.883h-2.968
				c-0.68,0-0.929,0.294-1.133,0.725c0,0-1.604,3.419-3.557,5.573c-0.626,0.696-0.944,0.905-1.291,0.905
				c-0.279,0-0.407-0.232-0.407-0.86V8.396c0-0.771-0.091-0.997-0.725-0.997h-4.758c-0.362,0-0.589,0.211-0.589,0.499
				c0,0.725,1.11,0.889,1.11,2.854v4.055c0,0.815-0.046,1.133-0.431,1.133c-1.02,0-3.443-3.512-4.803-7.499
				C6.799,7.626,6.505,7.399,5.735,7.399H2.767c-0.43,0-0.748,0.295-0.748,0.726c0,0.792,0.929,4.462,4.576,9.378
				c2.446,3.308,5.663,5.098,8.563,5.098c1.768,0,2.198-0.295,2.198-1.042v-2.538c0-0.634,0.249-0.905,0.611-0.905
				c0.407,0,1.127,0.131,2.809,1.789c1.994,1.903,2.13,2.696,3.217,2.696h3.33c0.34,0,0.657-0.159,0.657-0.726
				C27.98,21.128,27.006,19.791,25.511,18.205z"/>
	</g>
</svg>
