<svg version="1.1" xmlns="http://www.w3.org/2000/svg" xmlns:xlink="http://www.w3.org/1999/xlink" xml:space="preserve" width="30px" height="30px" viewBox="0 0 30 30" preserveAspectRatio="xMidYMid meet">
<g id="youtube">
	<path fill-rule="evenodd" clip-rule="evenodd" fill="#FFFFFF" d="M23.405,14.386H6.595c-2.672,0-4.838,2.169-4.838,4.84v3.889
				c0,2.671,2.166,4.839,4.838,4.839h16.81c2.671,0,4.837-2.168,4.837-4.839v-3.889C28.242,16.555,26.076,14.386,23.405,14.386z
				 M10.127,17.413H8.564v7.766h-1.51v-7.766H5.493v-1.32h4.634V17.413z M14.541,25.179h-1.339v-0.734
				c-0.249,0.271-0.506,0.479-0.773,0.619c-0.268,0.146-0.526,0.213-0.778,0.213c-0.311,0-0.542-0.099-0.7-0.299
				c-0.155-0.201-0.235-0.498-0.235-0.899v-5.604h1.34v5.143c0,0.159,0.029,0.273,0.083,0.344c0.058,0.072,0.149,0.106,0.275,0.106
				c0.098,0,0.223-0.047,0.373-0.141c0.152-0.095,0.29-0.214,0.416-0.361v-5.091h1.339V25.179z M19.088,24.886
				c-0.209,0.254-0.515,0.379-0.91,0.379c-0.264,0-0.498-0.048-0.701-0.146c-0.205-0.097-0.397-0.246-0.573-0.454v0.514h-1.355
				v-9.085h1.355v2.926c0.182-0.202,0.373-0.359,0.573-0.465c0.205-0.107,0.411-0.159,0.619-0.159c0.424,0,0.746,0.142,0.97,0.427
				c0.225,0.286,0.337,0.705,0.337,1.253v3.72h0.001C19.403,24.268,19.299,24.632,19.088,24.886z M24.049,21.988h-2.563v1.263
				c0,0.353,0.043,0.598,0.131,0.734c0.09,0.137,0.24,0.204,0.454,0.204c0.223,0,0.377-0.059,0.467-0.174
				c0.086-0.116,0.132-0.37,0.132-0.765v-0.305h1.379v0.344c0,0.688-0.167,1.205-0.505,1.554c-0.334,0.347-0.836,0.519-1.503,0.519
				c-0.602,0-1.074-0.184-1.419-0.552c-0.343-0.366-0.518-0.874-0.518-1.52v-3.012c0-0.579,0.191-1.056,0.57-1.422
				c0.379-0.365,0.866-0.548,1.467-0.548c0.613,0,1.085,0.169,1.414,0.508c0.328,0.34,0.493,0.826,0.493,1.462V21.988z
				 M22.084,19.481c-0.213,0-0.365,0.06-0.458,0.186c-0.096,0.117-0.14,0.318-0.14,0.601v0.678h1.184v-0.678
				c0-0.282-0.047-0.483-0.141-0.601C22.438,19.542,22.288,19.481,22.084,19.481z M17.464,19.459c-0.095,0-0.191,0.021-0.284,0.064
				c-0.094,0.043-0.186,0.113-0.276,0.205v4.176c0.108,0.108,0.215,0.191,0.317,0.239c0.104,0.046,0.211,0.071,0.325,0.071
				c0.164,0,0.284-0.047,0.361-0.144c0.076-0.095,0.115-0.246,0.115-0.461v-3.462c0-0.229-0.046-0.398-0.141-0.516
				C17.783,19.517,17.645,19.459,17.464,19.459z M8.796,12.058h1.698V7.905l1.977-5.858h-1.726L9.694,6.049H9.587L8.484,2.047h-1.71
				l2.022,6.045V12.058z M14.771,12.244c0.686,0,1.224-0.18,1.615-0.54c0.39-0.361,0.585-0.854,0.585-1.485V6.404
				c0-0.563-0.2-1.025-0.597-1.383c-0.399-0.355-0.911-0.535-1.536-0.535c-0.686,0-1.231,0.17-1.637,0.509s-0.609,0.792-0.609,1.367
				v3.827c0,0.628,0.198,1.125,0.594,1.497C13.583,12.058,14.112,12.244,14.771,12.244z M14.146,6.306L14.146,6.306
				c0.001-0.16,0.059-0.29,0.171-0.392c0.117-0.1,0.266-0.147,0.45-0.147c0.199,0,0.361,0.048,0.484,0.147
				c0.122,0.102,0.184,0.231,0.184,0.392v4.023c0,0.197-0.061,0.354-0.182,0.467c-0.12,0.113-0.282,0.169-0.486,0.169
				c-0.199,0-0.353-0.054-0.461-0.168c-0.106-0.11-0.16-0.266-0.16-0.469V6.306z M19.248,12.166c0.284,0,0.575-0.081,0.875-0.237
				c0.303-0.157,0.593-0.388,0.868-0.688v0.818H22.5V4.674h-1.509v5.605c-0.14,0.16-0.296,0.292-0.464,0.396
				c-0.17,0.104-0.311,0.155-0.422,0.155c-0.141,0-0.245-0.038-0.306-0.119c-0.063-0.077-0.098-0.203-0.098-0.377V4.674h-1.506
				v6.172c0,0.439,0.089,0.769,0.263,0.987C18.638,12.054,18.898,12.166,19.248,12.166z"/>
</g>
</svg>