<?xml version="1.0" encoding="utf-8"?>
<!DOCTYPE svg PUBLIC "-//W3C//DTD SVG 1.1//EN" "http://www.w3.org/Graphics/SVG/1.1/DTD/svg11.dtd">
<svg version="1.1" xmlns="http://www.w3.org/2000/svg" xmlns:xlink="http://www.w3.org/1999/xlink" x="0px" y="0px"
	 width="32px" height="32px" viewBox="-2 -2 24 24" xml:space="preserve">
	<g id="phone">
		<path fill-rule="evenodd" clip-rule="evenodd" fill="#ffffff" stroke="#DC202C" stroke-width="1" stroke-linejoin="round" d="M17.616,14.765c-1.457-0.133-2.872-0.525-4.211-1.107l-2.419,1.617
			C7.687,13.982,5.052,11.37,3.73,8.086l1.617-2.42c-0.612-1.374-1.023-2.83-1.16-4.33c-0.038-0.413-0.053-0.819-0.05-1.219H0.346
			C0.19,1.012,0.105,1.931,0.105,2.87c0,8.837,7.163,16,16,16c0.96,0,1.899-0.09,2.813-0.252v-3.805
			C18.491,14.82,18.058,14.805,17.616,14.765z"/>
	</g>
</svg>
