<?xml version="1.0" encoding="utf-8"?>
<!-- Generator: Adobe Illustrator 15.1.0, SVG Export Plug-In . SVG Version: 6.00 Build 0)  -->
<!DOCTYPE svg PUBLIC "-//W3C//DTD SVG 1.1//EN" "http://www.w3.org/Graphics/SVG/1.1/DTD/svg11.dtd">
<svg version="1.1" xmlns="http://www.w3.org/2000/svg" xmlns:xlink="http://www.w3.org/1999/xlink" x="0px" y="0px" width="300px"
	 height="300px" viewBox="0 0 300 300" enable-background="new 0 0 300 300" xml:space="preserve">
<g id="Фигура_1_1_" enable-background="new    ">
	<g id="Фигура_1">
		<g>
			<path fill-rule="evenodd" clip-rule="evenodd" fill="#A7A9AC" d="M136,45H34c-2.209,0-4,1.791-4,4v202c0,2.209,1.791,4,4,4h21
				v-30H35V65h100v75h5V49C140,46.791,138.209,45,136,45z M95,57H75v-3.5h20V57z"/>
		</g>
	</g>
</g>
<g id="foreground_1_">
	<g id="Фигура_1_копия">
		<g>
			<path fill-rule="evenodd" clip-rule="evenodd" d="M266,145H64c-2.209,0-4,1.791-4,4v102c0,2.209,1.791,4,4,4h202
				c2.209,0,4-1.791,4-4V149C270,146.791,268.209,145,266,145z M80,216c0,2.209-1.791,4-4,4h-2c-2.209,0-4-1.791-4-4v-32
				c0-2.209,1.791-4,4-4h2c2.209,0,4,1.791,4,4V216z M250,250H90V150h160V250z M261.5,210H258v-20h3.5V210z"/>
		</g>
	</g>
	<g id="Фигура_1_копия_2">
		<g>
			<rect x="90" y="150" fill-rule="evenodd" clip-rule="evenodd" fill="#FFFFFF" width="160" height="100"/>
		</g>
	</g>
	<g id="pesnyary-fb_1_">
		<g id="note-lines">
			<g>
				<path fill-rule="evenodd" clip-rule="evenodd" fill="#A7A9AC" d="M135.748,208.97h31.155l-31.654-0.271L135.748,208.97z
					 M136.41,207.471l30.765-0.025l-30.765-0.292V207.471z M172.425,207.436l2.154,0.022l55.619-0.12l-43.371-0.133L172.425,207.436
					z M137.175,205.832h30.427l-30.427-0.294V205.832z M172.496,205.795l2.11,0.022l54.478-0.12l-42.481-0.133L172.496,205.795z
					 M222.666,200.956l-37.96-0.132l-12.605,0.23l1.887,0.021L222.666,200.956z M137.989,202.678L169,202.646l-31.011-0.292V202.678
					z M137.326,204.269h31.14l-31.14-0.294V204.269z M187.786,208.834l-15.383,0.23l2.303,0.021l59.402-0.119L187.786,208.834z
					 M227.253,204.112l-41.268-0.133l-13.704,0.23l2.052,0.021L227.253,204.112z M225.746,202.505l-40.326-0.131l-13.392,0.23
					l2.004,0.021L225.746,202.505z M138.58,201.087l30.824-0.029l-30.824-0.292V201.087z"/>
			</g>
		</g>
		<g id="over-guitar">
			<g>
				<path fill-rule="evenodd" clip-rule="evenodd" fill="#A7A9AC" d="M103.444,196.145c0.293-0.313,0.606-0.629,0.92-0.945
					C103.719,195.826,103.414,196.178,103.444,196.145z M184.575,192.781c-0.804-6.803-9.383-4.195-15.062-1.409
					c-14.24,6.985-4.942-1.335-11.195-9.263c-11.329-14.365-41.086,0.142-53.954,13.09c2.757-2.676,11.738-10.396,27.418-14.81
					c5.33-1.501,9.42-2.536,16.567-1.6c7.562,0.99,11.492,5.218,10.987,14.397c-0.059,1.065,0.629,1.974,1.49,2.443
					c0.997,0.544,2.393,0.333,3.304,0.16c2.244-0.428,7.254-3.65,9.644-4.852c9.237-4.639,10.878,0.16,10.102,3.786
					c-0.104,0.303-0.087,0.537-0.201,0.784c-0.022,0.05-0.645-1.42-1.95-1.608c-2.143-0.309-3.378,0.536-4.516,1.338
					c-0.807,0.569,0.243,1.776,0.457,1.586c5.22-4.638,5.63-0.225,5.745-0.131c0.385,0.313,0.78-1.283,0.893-1.675
					C184.519,194.273,184.666,193.555,184.575,192.781z"/>
			</g>
		</g>
		<g id="logo">
			<g>
				<path fill-rule="evenodd" clip-rule="evenodd" fill="#DC202C" d="M139.736,198.35c-2.698,4.205-5.639,8.661-7.294,13.409
					c-0.425,1.219-0.675,1.326,0.153,1.775c1.917,0.995,2.249,0.814,2.308-0.974c0.063-0.413,0.215-1.582,0.748-2.825l1.068-2.737
					l3.642-8.649L139.736,198.35z M149.598,204.308c-0.172,0.076-0.459,0.264-0.867,0.567c-0.483,0.368-0.99,0.68-1.526,0.938
					c-0.536,0.257-1.079,0.473-1.635,0.644c-0.552,0.172-1.071,0.296-1.554,0.367c-0.484,0.077-0.935,0.112-1.348,0.112
					c-0.975,0-1.466-0.151-1.466-0.455c0-0.112,0.047-0.245,0.136-0.399c0.091-0.157,0.109-0.196,0.362-0.548
					c1.812-0.172,4.209-1.069,5.567-2.378c0.436-0.423,0.656-0.875,0.656-1.358c0-0.516-0.156-0.876-0.469-1.078
					c-0.311-0.2-0.71-0.304-1.194-0.304c-0.467,0-0.975,0.087-1.515,0.264c-0.542,0.175-0.994,0.387-1.354,0.639
					c-0.575,0.411-1.083,0.844-1.514,1.291c-0.432,0.451-0.827,0.947-1.179,1.494c-0.513,0.092-0.855,0.244-1.028,0.456
					c-0.228,0.304-0.34,0.535-0.34,0.691c0,0.235,0.23,0.242,0.734,0.253c-0.152,0.483-0.254,0.981-0.254,1.409
					c0,0.443,0.137,0.899,0.407,1.358c0.275,0.46,0.64,0.835,1.095,1.123c0.461,0.287,0.924,0.436,1.399,0.436
					c0.627,0,1.267-0.068,1.926-0.2c0.66-0.132,1.283-0.315,1.862-0.552c0.583-0.235,1.099-0.507,1.547-0.822
					c0.446-0.319,0.807-0.663,1.07-1.04c0.312-0.442,0.548-0.851,0.703-1.214c0.156-0.368,0.232-0.787,0.232-1.255
					c0-0.212-0.032-0.355-0.101-0.432C149.89,204.235,149.77,204.235,149.598,204.308z M143.66,202.017
					c0.562-0.401,1.169-0.518,1.354-0.257c0.187,0.26-0.117,0.796-0.68,1.198c-0.561,0.402-1.167,0.519-1.354,0.259
					C142.794,202.956,143.1,202.419,143.66,202.017z M141.496,185.766c1.496-3.338,4.321-5.587,8.46-5.436
					c-0.319-0.078-0.673-0.118-1.051-0.118c-3.702,0-7.399,3.238-9.343,6.201c-0.536,0.815-0.986,1.724-1.339,2.724
					c-0.343,0.957-0.739,2.229-1.198,3.813l2.028-0.001C139.633,190.534,140.366,187.931,141.496,185.766z M141.385,195.016
					c1.352,0,2.234,0.052,2.64,0.156c0.385,0.111,0.574,0.393,0.574,0.843c0,0.38-0.111,0.915-0.34,1.608h0.706l1.378-4.613
					c-13.344,0-2.278-0.027-22.95,0.052c-0.216,0.758-0.471,1.366-0.765,1.843c1.764,0.085,3.313,0.425,4.652,1.013
					c0.65,0.292,1.23,0.63,1.741,1.015c0.486,0.376,0.909,0.795,1.265,1.257c0.727,0.974,1.091,2.091,1.091,3.353
					c0,0.995-0.161,2.798-0.606,3.752c-1.198-1.241-2.726-2.762-3.923-3.895c-1.221-1.149-2.254-2.084-3.109-2.783
					c-1.888-1.595-3.802-2.841-5.742-3.73c-1.927-0.883-3.959-1.319-6.108-1.319c-1.438,0-2.809,0.196-4.109,0.588
					c-1.346,0.412-2.535,1.039-3.58,1.875c-1.071,0.855-1.913,1.96-2.528,3.313s-0.922,2.946-0.922,4.789
					c0,1.927,0.354,3.671,1.059,5.239c0.686,1.6,1.666,2.979,2.947,4.135c1.287,1.176,2.822,2.078,4.612,2.698
					c1.797,0.64,3.73,0.961,5.795,0.961c3.221,0,6.441-0.908,9.668-2.719c7.493-4.226,11.128-11.576,13.609-19.429H141.385z
					 M136.406,195.017h-0.021c-1.166,5.452-3.334,11.171-7.29,15.233c-1.552,1.612-3.319,2.714-5.283,3.592v0.01
					c-0.131,0.059-0.263,0.116-0.396,0.173c-2.144,0.902-4.32,1-6.743,1c-2.816,0-5.171-0.442-7.432-1.514
					c-2.253-1.058-3.937-2.305-5.224-4.23c-1.293-1.928-2.184-3.885-2.184-6.23c0-1.163,0.084-2.253,0.509-3.284
					c0.393-1.02,0.968-1.908,1.718-2.659c0.731-0.731,1.607-1.307,2.646-1.725c1.019-0.425,2.13-0.634,3.325-0.634
					c1.659,0,3.456,0.386,5.383,1.149c1.986,0.804,4.194,2.177,6.618,4.116c2.463,1.967,5.109,4.632,7.944,7.996
					c0.68-1.091,1.229-2.273,1.646-3.541c0.398-1.183,0.595-2.254,0.595-3.214c0-1.222-0.431-2.437-1.287-3.632
					c-0.451-0.625-0.971-1.167-1.557-1.629c-0.501-0.406-1.052-0.752-1.653-1.037L136.406,195.017
					C136.406,195.017,136.406,195.017,136.406,195.017z M180.444,209.657c0.052-0.307,0.339-0.963,0.861-1.971
					c0.522-1.011,0.919-1.729,1.186-2.157c0.138-0.208,0.209-0.421,0.209-0.637c0-0.283-0.103-0.55-0.307-0.806
					c-0.204-0.251-0.447-0.444-0.707-0.609c-0.49-0.31-0.554-0.353-1.597,0.603c-0.33,0.303-0.478,0.451-0.566,0.56
					c-0.149,0.025-0.305,0.053-0.469,0.078c-0.631,0.096-1.284,0.174-1.953,0.224c-0.672,0.053-1.161,0.073-1.474,0.054
					c-0.145-0.009-0.232-0.037-0.27-0.078c-0.103-0.115-0.025-0.35,0.231-0.706c0.254-0.358,0.729-0.909,1.424-1.651
					c0.409-0.438,2.727,1.271,2.72,0.878c-0.006-0.396-2.249-2.852-2.502-3.133c-0.518-0.575-1.161-0.48-1.929,0.283
					c-0.222,0.22-0.557,0.599-1.004,1.127c-0.448,0.534-0.733,0.905-0.848,1.117c-0.129,0.212-0.22,0.455-0.277,0.729
					c-0.057,0.269-0.063,0.543-0.018,0.814s0.16,0.51,0.337,0.708c0.162,0.178,0.43,0.342,0.808,0.494
					c0.378,0.151,0.812,0.293,1.308,0.416c0.493,0.12,1.805-0.035,2.18,0.014c-0.021,0.012-1.435,1.152-2.341,0.968
					c-1.219-0.249-3.018-1.004-3.027,1.021c-0.008,1.609,1.042,1.658,2.211,1.307c0.765-0.229,1.38-0.643,2.252-1.24
					c0.629-0.431,1.255-0.877,1.625-1.128c-0.028,0.215-0.042,0.438-0.042,0.666c0,0.62,0.184,1.162,0.562,1.622
					c0.377,0.46,0.755,0.691,1.127,0.691C180.324,209.913,180.422,209.826,180.444,209.657z M209.18,200.76
					c-0.497-0.335-0.989-0.16-1.136-0.08c-0.173,0.093-0.408,0.187-0.884,0.986c-0.475,0.798-0.971,1.719-1.48,2.766
					c-2.864,5.032,0.712,5.024,1.172,4.909c0.186-0.047,0.269-0.194,0.237-0.404c-0.152-1.03,0.172-1.325,0.771-3.145
					c0.007-0.025,0.227-0.603,0.651-1.735c0.424-1.133,0.591-1.807,0.641-2.011C209.256,201.617,209.385,201.159,209.18,200.76z
					 M203.431,204.785c-0.075-0.239-0.213-0.471-0.405-0.699c-0.188-0.224-0.428-0.412-0.711-0.562s-0.597-0.224-0.932-0.224
					c-0.302,0-0.687,0.09-1.158,0.271c-0.472,0.181-0.982,0.412-1.532,0.698c-0.546,0.291-1.01,0.555-1.387,0.802
					c0.008-0.023,0.229-0.55,0.651-1.583c0.425-1.034,0.642-1.643,0.642-1.834c0-0.271-0.11-0.578-0.33-0.923
					c-0.22-0.343-0.439-0.516-0.66-0.516c-0.193,0-0.526,0.361-1.002,1.092c-0.475,0.727-0.971,1.567-1.48,2.522
					c-0.511,0.951-0.802,1.513-0.881,1.688c-0.09,0.209-0.2,0.456-0.326,0.751c-0.129,0.291-0.224,0.542-0.282,0.754
					c-0.063,0.209-0.11,0.464-0.149,0.763c-0.031,0.322-0.004,0.562,0.086,0.715c0.087,0.153,0.264,0.321,0.523,0.507
					c0.758,0.49,1.276,0.522,1.556,0.089c0.268-0.38,0.64-0.843,1.115-1.386c0.476-0.538,0.986-1.08,1.536-1.614
					c0.551-0.538,0.966-0.919,1.261-1.139c0.138-0.103,0.239-0.149,0.311-0.149c0.192,0,0.334,0.216,0.424,0.647
					c0.095,0.433,0.164,1.159,0.208,2.18c0.026,0.602-3.556,1.186-3.199,1.445c0.358,0.262,4.543,0.236,5.019,0.236
					c0.975,0,1.462-0.546,1.462-1.634c0-0.314-0.04-0.821-0.114-1.512C203.595,205.478,203.517,205.014,203.431,204.785z
					 M159.844,205.087c-0.17,0.004-0.483,0.11-0.947,0.311c-0.459,0.188-1.021,0.386-1.688,0.585c-0.668,0.2-1.379,0.374-2.13,0.519
					c-0.754,0.146-1.397,0.22-1.933,0.22c-0.314,0-0.538-0.027-0.663-0.078c-0.09-0.033-0.146-0.084-0.171-0.148
					c0.009-0.016,0.017-0.031,0.025-0.048c0.205-0.447,0.563-0.955,1.069-1.52c0.507-0.57,1.044-1.049,1.61-1.438
					c0.569-0.394,1.057-0.593,1.461-0.602c0.294,0.347,0.671,0.52,1.14,0.52c0.447,0,0.884-0.205,1.312-0.609
					c0.344-0.322,0.528-0.684,0.56-1.089c0.104-0.211,0.159-0.436,0.159-0.676c0-0.436-0.157-0.79-0.472-1.056
					c-0.314-0.272-0.715-0.406-1.199-0.406c-0.411,0-0.827,0.084-1.248,0.244c-0.416,0.162-0.951,0.46-1.607,0.896
					c-1.111,0.747-2.073,1.673-2.891,2.781c-0.616,0.835-0.999,1.634-1.15,2.396c-0.148,0.442-0.228,0.874-0.228,1.293
					c0,0.522,0.13,1.006,0.396,1.457c0.264,0.447,0.642,0.805,1.132,1.068c0.49,0.268,1.056,0.397,1.692,0.397
					c0.598,0,1.27-0.118,2.017-0.351c0.74-0.235,1.416-0.541,2.019-0.919c0.601-0.38,1.018-0.766,1.248-1.159
					c0.293-0.509,0.477-0.973,0.55-1.394c0.124-0.343,0.188-0.661,0.188-0.956C160.095,205.158,160.013,205.079,159.844,205.087z
					 M190.879,203.853c-0.534-0.55-1.716-1.448-2.607-2.116c0.633-1.146,1.792-1.747,2.298-3.104c0.069-0.2,0.105-0.437,0.105-0.715
					c0-0.307-0.087-0.594-0.264-0.868c-0.177-0.271-0.396-0.49-0.66-0.659c-0.268-0.17-0.511-0.256-0.73-0.256
					c-0.368,0-0.77,0.393-1.198,1.175c-0.256,0.432-0.734,1.441-1.438,3.04c-0.507-0.338-0.86-0.538-1.053-0.593
					c-0.196-0.06-0.365-0.012-0.503,0.142c-0.208,0.208-0.114,0.455,0.275,0.737l0.852,0.634c-0.36,0.797-0.966,2.152-1.822,4.069
					c-0.856,1.912-1.552,3.465-2.09,4.658c-0.538,1.195-1.176,2.483-1.783,3.925c-0.046,0.108-1.11,2.112-0.843,2.264
					c0.111,0.063,0.87-1.104,0.982-1.298c1.156-1.986,2.195-3.656,3.128-5.285c1.277-2.231,2.611-4.314,4.088-7.103
					c0.659,0.758,1.425,2.119,1.425,2.635c0,0.385-0.056,0.684-0.174,0.898c-0.114,0.217-0.334,0.554-0.656,1.026
					c-0.321,0.467-0.482,0.809-0.482,1.021c0,0.394,0.224,0.739,0.668,1.037c0.447,0.299,0.938,0.448,1.473,0.448
					c0.303,0,0.64-0.117,1.025-0.361c0.385-0.243,0.715-0.578,0.99-1.014c0.275-0.433,0.416-0.919,0.416-1.453
					c0-0.479-0.105-0.939-0.314-1.387C191.782,204.898,191.409,204.398,190.879,203.853z M171.251,200.383
					c-0.191,0-0.522,0.361-0.995,1.093c-0.473,0.727-0.964,1.566-1.472,2.521l-0.063,0.117c-0.652-0.099-2.235-0.064-2.666-0.06
					l-1.06,0.01c0.001-0.003,0-0.001-0.002,0.002c0.018-0.041,0.088-0.21,0.327-0.794c0.425-1.033,0.641-1.643,0.641-1.834
					c0-0.271-0.11-0.578-0.33-0.923c-0.22-0.343-0.439-0.515-0.66-0.515c-0.192,0-0.526,0.361-1.001,1.091
					c-0.476,0.728-0.972,1.567-1.481,2.522c-0.511,0.951-0.801,1.513-0.88,1.69c-0.091,0.207-0.201,0.455-0.326,0.75
					c-0.13,0.29-0.225,0.542-0.283,0.754c-0.063,0.208-0.109,0.463-0.148,0.762c-0.032,0.322-0.004,0.563,0.086,0.716
					c0.086,0.152,0.264,0.321,0.522,0.506c0.759,0.491,1.27,0.518,1.556,0.091c0.259-0.387,0.688-2.496,1.263-2.933
					c0.635-0.483,3.472-0.332,3.431,0.198l-0.124,0.289c-0.128,0.291-0.223,0.542-0.28,0.754c-0.063,0.209-0.109,0.464-0.148,0.763
					c-0.031,0.322-0.004,0.561,0.085,0.715c0.087,0.153,0.262,0.322,0.52,0.507c0.754,0.491,1.262,0.518,1.546,0.09
					c0.258-0.387,0.489-0.708,0.726-1.387l0.918-2.64c0.008-0.023,0.227-0.551,0.647-1.583c0.423-1.033,0.637-1.642,0.637-1.835
					c0-0.271-0.108-0.577-0.328-0.923C171.688,200.556,171.47,200.383,171.251,200.383z"/>
			</g>
		</g>
		<g id="logo_копия">
			<g>
				<path fill-rule="evenodd" clip-rule="evenodd" fill="#EF9E87" d="M130.932,197.623c-0.451-0.625-0.971-1.167-1.557-1.629
					c-0.49-0.396-1.028-0.735-1.613-1.017h-4.179c1.373,0.146,2.604,0.46,3.697,0.939c0.65,0.292,1.23,0.63,1.741,1.015
					c0.486,0.376,0.909,0.795,1.265,1.257c0.727,0.974,1.091,2.091,1.091,3.353c0,0.992-0.16,2.787-0.603,3.742
					c0.15,0.149,0.284,0.282,0.398,0.395c0.164-0.395,0.315-0.797,0.451-1.209c0.398-1.183,0.595-2.254,0.595-3.214
					C132.219,200.033,131.788,198.818,130.932,197.623z"/>
			</g>
		</g>
		<g id="pattern">
			<g>
				<path fill-rule="evenodd" clip-rule="evenodd" fill="#745348" d="M222.972,203.979c-2.436,1.512-1.426,2.999-3.552,4.617
					C221.922,208.064,221.74,204.757,222.972,203.979z M218.533,204.688c-2.009-0.811-1.218-2.584-0.178-2.841
					c-0.015-0.001-0.029-0.001-0.043-0.001c-0.962,0-1.458,0.714-1.469,1.429C216.832,204.047,217.388,204.818,218.533,204.688z
					 M217.468,208.063c-2.041-0.979-4.029-2.956-5.683-3.729C213.752,205.386,214.752,208.351,217.468,208.063z M221,206.005
					c0.033-0.028,0.116-0.333,0.369-0.577c-1.657,1.298-2.979,1.785-6.343,0.825C217.221,207.477,219.796,207.021,221,206.005z
					 M218.355,203.445c-0.473-0.424-0.017-1.487,1.173-0.911c-0.382-0.297-0.695-0.411-0.94-0.411
					C217.773,202.123,217.71,203.386,218.355,203.445z M220.848,205.414c0.858-1.074,0.595-2.969,1.303-3.811
					c-0.902,0.354-0.739,1.542-1.024,2.02c0.007-1.413-1.427-2.11-2.416-1.775C220.438,202.095,221.104,203.118,220.848,205.414z
					 M223.918,204.466c-1.09,0.028-1.368,0.419-1.551,0.53c-0.034,0.021-0.101,0.271-0.293,0.496
					c0.56-0.578,1.242-0.898,1.941-0.943C224.05,204.547,223.96,204.497,223.918,204.466z M227.008,203.915
					c-0.006,0.038,0.233-0.05,0.485-0.084c0.111-0.015,0.131,0.046,0.105,0.104c-0.023,0.06-0.09,0.116-0.156,0.107
					c-0.162-0.019-0.178,0.102-0.208,0.113c0.771,0.245,1.222,0.672,1.953,0.888c-0.021-0.128-0.118-0.242-0.047-0.388
					c0.038-0.076,0.205-0.113,0.218-0.219c0.018-0.168-0.219-0.145-0.186-0.308c0.013-0.064,0.181-0.055,0.271-0.272
					c0.031-0.078-0.185-0.102-0.222-0.253c-0.027-0.102,0.131-0.068,0.16-0.307c0.018-0.152-0.207-0.193-0.246-0.34
					c-0.021-0.083,0.137-0.214,0.06-0.373c-0.8,0.199-0.853,0.678-1.642,0.794C227.141,203.517,227.034,203.726,227.008,203.915z
					 M227.611,202.736c0.083,0.138-0.253,0.33,0.155,0.354c0.824-0.48,0.803-0.821,1.207-1.097c0.083-0.057-0.387-0.036-0.389-0.153
					c-0.003-0.361-0.07-0.338-0.193-0.312c-0.054,0.01-0.115,0.021-0.188,0.001c-0.114-0.029-0.132-0.247-0.21-0.296
					c-0.04-0.023-0.106-0.023-0.172-0.023c-0.065,0.001-0.131,0.002-0.174-0.021c-0.083-0.043-0.146-0.19-0.237-0.23
					c0.067,1.073-0.214,1.798-0.71,2.31C227.251,203.386,227.264,202.79,227.611,202.736z M236.324,207.974
					c-0.824-0.396-1.641-0.954-2.429-1.529c0.669,0.064,1.35-0.257,1.105-0.824c-0.41,0.638-1.376,0.268-1.874,0.255
					c-0.882-0.655-1.719-1.272-2.485-1.631C232.609,205.296,233.609,208.261,236.324,207.974z M224.748,203.445
					c-0.298,0.296-0.719,0.465-0.71,1.065c1.164,0.811,1.924-0.174,2.486-0.71c-0.49-0.181-0.679-0.026-0.834,0.128
					c-0.116,0.117-0.214,0.233-0.409,0.204c0.078-0.186,0.808-0.548,0.177-0.688c-0.519,0.065-0.31,0.255-0.67,0.422
					C224.748,203.712,224.918,203.636,224.748,203.445z M226.353,203.086c0.362-0.278,0.06-1.047,0.527-0.351
					c0.349-0.635-0.083-0.947,0-1.776c-0.231,0.003-0.161,0.044-0.382,0.121c-0.044,0.015-0.113-0.019-0.191-0.051
					c-0.08-0.035-0.167-0.068-0.24-0.051c-0.097,0.022-0.109,0.177-0.204,0.195c-0.058,0.012-0.113-0.006-0.171-0.021
					c-0.076-0.021-0.155-0.042-0.247-0.003c-0.065,0.027-0.029,0.172-0.092,0.198c-0.053,0.023-0.104,0.02-0.163,0.015
					c-0.105-0.006-0.236-0.015-0.441,0.13C225.685,201.538,226.391,202.993,226.353,203.086z M222.262,204.156
					c0.028-1.533,2.691-2.505,3.553-1.065c-0.209-1.38-1.725-1.528-2.263-1.111c-0.044,0.035,0.444-0.364,0.486-0.665
					C223.103,201.803,221.694,202.755,222.262,204.156z M211.853,204.101c-0.012-0.003,1.046,0.622,2.393,1.246
					c2.677,1.24,6.499,2.48,5.354-1.19c-0.104,2.042-3.12,1.844-5.613,1.009c1.322,0.359,2.724-0.132,2.417-0.832
					c-0.95,0.833-2.246,0.522-3.281,0.175c-0.887-0.374-1.573-1.152-0.354-1.654c-0.695-0.142-1.384,0.655-0.542,1.337
					c-1.476-0.731-1.834-2.247-0.97-2.875c0.519-0.327,0.133,0.83,1.58,0.858c0.034,0,0.061-0.064-0.007-0.101
					c-0.271-0.143-0.229-0.304-0.224-0.302c0.268,0.2,0.627,0.325,1.051,0.398c-0.073-0.147-0.624-0.313-0.23-0.37
					c0.152-0.022-0.156-0.31-0.312-0.407c-0.506-0.318-0.941-0.451-1.299-0.451C210.354,200.941,210.194,203.16,211.853,204.101z
					 M231.082,205.966c-0.292,2.533-1.714,2.728-2.667,2.405c0.852,1.232,2.815,0.256,2.839-2.077
					c0.211,0.484-0.227,0.871,0.254,1.349c0.041-0.482,0.087-0.431,0.125-0.962c0.055-0.749-0.482-1.253-0.812-1.848
					C230.927,205.145,231.129,205.557,231.082,205.966z M226.902,204.944c-0.077-0.033-0.12-0.022-0.126-0.264
					c-0.012-0.16-0.081-0.349-0.184-0.349c-0.049,0-0.105,0.042-0.168,0.152c-0.333,1.018-0.971,0.704-1.499,1.625
					c0.221-0.031,0.422-0.084,0.593-0.034c0.11,0.031,0.111,0.186,0.239,0.217c0.058,0.014,0.111,0.003,0.163-0.007
					c0.069-0.014,0.136-0.027,0.206,0.016c0.112,0.067,0.116,0.252,0.241,0.304c0.048,0.021,0.12,0.005,0.19-0.014
					c0.091-0.022,0.179-0.045,0.205,0.016c0.064,0.205,0.441,0.316,0.471,0.214C227.109,206.59,227.393,205.089,226.902,204.944z
					 M228.431,206.09c-0.007-0.119,0.299-0.118,0.345-0.165c0.151-0.157-0.156-0.354,0.371-0.461
					c-0.828-0.413-1.136-0.858-1.8-1.107c-0.052-0.02-0.186-0.102-0.224-0.102c-0.007,0-0.011,0.003-0.011,0.009
					c0,0.351-0.347,0.242-0.012,0.604c0.514,0.555,0.294,1.308,0.564,1.857c0.104-0.075,0.125-0.093,0.161-0.24
					c0.035-0.145,0.168-0.144,0.299-0.144C228.283,206.343,228.439,206.343,228.431,206.09z M229.754,203.711
					c1.154,1.275,0.485,4.221-1.42,4.084C230.797,209.394,231.508,204.008,229.754,203.711z M232.865,207.767
					c-0.01-0.831-0.2-1.611-0.906-1.931c0.838,0.768-0.375,2.117,0.947,3.125C232.728,208.499,232.87,208.168,232.865,207.767z
					 M238.1,206.907c-0.619,2.394-4.054,1.567-4.972,0C233.577,208.986,239.024,210.906,238.1,206.907z M214.012,207.761
					c-0.011-0.832-0.201-1.611-0.907-1.933c0.838,0.77-0.374,2.119,0.949,3.126C213.873,208.493,214.018,208.162,214.012,207.761z
					 M212.196,205.997c-0.293,2.534-1.713,2.729-2.667,2.405c0.853,1.233,2.816,0.256,2.839-2.076
					c0.212,0.484-0.227,0.871,0.255,1.35c0.041-0.483,0.086-0.433,0.125-0.963c0.054-0.748-0.484-1.254-0.813-1.848
					C212.041,205.177,212.243,205.589,212.196,205.997z M210.897,203.801c1.153,1.274,0.485,4.222-1.421,4.084
					C211.939,209.483,212.651,204.097,210.897,203.801z M219.244,206.996c-0.621,2.395-4.056,1.567-4.973,0
					C214.722,209.076,220.168,210.996,219.244,206.996z M225.969,206.957c-1.068,0.548-2.521,0.234-3.316,0.554
					c0.516-0.479,1.242-1.142,0.926-1.973c-0.955,1.767-2.919,2.525-4.439,3.729c1.066-0.145,2.639-1.065,2.639-1.065
					C223.919,207.299,225.129,208.394,225.969,206.957z M226.523,209.305c-0.82-0.816-1.879-1.199-2.944-1.199
					c-0.827,0-1.658,0.231-2.384,0.668c0.656-0.116,2.45,0.148,3.635,0.673c-0.074-0.298-1.203-1.176-3.013-0.849
					C223.96,207.93,225.281,208.839,226.523,209.305z"/>
			</g>
		</g>
		<g id="abbr">
			<g>
				<path fill-rule="evenodd" clip-rule="evenodd" d="M177.416,212.467c0.165-0.184,0.392-0.275,0.68-0.275
					c0.093,0,0.191,0.017,0.297,0.05s0.184,0.077,0.235,0.131c0.029,0.024,0.078,0.075,0.144,0.152h0.045l0.124-0.303
					c-0.242-0.125-0.525-0.188-0.85-0.188c-0.271,0-0.512,0.046-0.721,0.135c-0.212,0.089-0.375,0.219-0.491,0.387
					c-0.118,0.169-0.176,0.367-0.176,0.598c0,0.217,0.054,0.411,0.16,0.585c0.107,0.173,0.265,0.308,0.472,0.405
					c0.206,0.099,0.453,0.146,0.74,0.146c0.304,0,0.578-0.075,0.819-0.229l0.029-0.21l-0.034-0.014
					c-0.13,0.102-0.252,0.177-0.362,0.225c-0.112,0.049-0.236,0.072-0.376,0.072c-0.188,0-0.359-0.042-0.509-0.128
					c-0.15-0.084-0.266-0.203-0.347-0.356c-0.081-0.151-0.122-0.325-0.122-0.521c0-0.131,0.02-0.252,0.06-0.36
					C177.273,212.659,177.335,212.559,177.416,212.467z M142.359,212.066l-0.095,0.014h-0.137l-0.096-0.014
					c-0.223,0.552-0.586,1.282-1.093,2.189l0.071-0.006l0.047-0.004l0.052-0.002l0.058,0.002c0.011,0.003,0.028,0.004,0.051,0.004
					l0.065,0.006l0.427-0.988l0.199-0.398c0.106-0.213,0.182-0.338,0.225-0.375c0.124,0.24,0.235,0.465,0.333,0.676
					c0.051,0.104,0.098,0.205,0.144,0.302c0.044,0.099,0.085,0.193,0.123,0.287c0.079,0.178,0.146,0.345,0.199,0.497l0.101-0.006
					l0.063-0.004l0.072-0.002h0.073c0.01,0.003,0.022,0.004,0.033,0.004h0.032l0.104,0.008c-0.173-0.328-0.361-0.709-0.568-1.144
					C142.638,212.681,142.477,212.332,142.359,212.066z M162.149,212.247c-0.064,0.076-0.124,0.144-0.179,0.204
					c-0.125,0.141-0.261,0.288-0.408,0.442l-0.402,0.415l-0.365,0.347v-1.594c-0.053,0.009-0.125,0.014-0.215,0.014
					c-0.102,0-0.173-0.005-0.214-0.014v2.191h0.214c0.057-0.07,0.11-0.135,0.161-0.194c0.052-0.06,0.105-0.122,0.162-0.185
					l0.415-0.445l0.431-0.437l0.343-0.336v1.597l0.082-0.007l0.059-0.004l0.073-0.002l0.098,0.004l0.118,0.009v-2.191h-0.216
					C162.235,212.146,162.183,212.208,162.149,212.247z M175.729,212.169c-0.188-0.089-0.404-0.135-0.648-0.135
					c-0.195,0-0.375,0.027-0.538,0.08s-0.309,0.128-0.433,0.229c-0.126,0.101-0.223,0.216-0.291,0.35
					c-0.066,0.133-0.101,0.281-0.101,0.445c0,0.233,0.057,0.438,0.169,0.613c0.111,0.176,0.264,0.311,0.46,0.401
					c0.193,0.092,0.406,0.138,0.637,0.138c0.207,0,0.396-0.03,0.569-0.092c0.171-0.061,0.313-0.146,0.428-0.254
					c0.114-0.107,0.199-0.23,0.257-0.368c0.059-0.137,0.088-0.278,0.088-0.423c0-0.226-0.054-0.422-0.158-0.593
					S175.917,212.26,175.729,212.169z M175.77,213.576c-0.058,0.16-0.147,0.295-0.272,0.405c-0.126,0.11-0.282,0.165-0.471,0.165
					c-0.192,0-0.352-0.046-0.477-0.136c-0.127-0.091-0.218-0.206-0.274-0.343c-0.057-0.14-0.085-0.292-0.085-0.461
					c0-0.173,0.028-0.339,0.085-0.496c0.057-0.159,0.151-0.287,0.283-0.386c0.131-0.1,0.305-0.149,0.518-0.149
					c0.143,0,0.266,0.029,0.366,0.089c0.102,0.059,0.183,0.134,0.243,0.225c0.06,0.091,0.104,0.191,0.13,0.303
					c0.025,0.111,0.039,0.224,0.039,0.337C175.854,213.268,175.825,213.416,175.77,213.576z M171.76,212.075v2.178l0.092-0.009
					l0.058-0.004h0.065l0.068,0.002c0.013,0.002,0.032,0.004,0.06,0.004l0.087,0.007v-1.981c0.625,0,1.051,0.017,1.275,0.052
					l-0.011-0.123l0.011-0.125H171.76z M211.378,211.856c0.322,0,0.624-0.073,0.906-0.216l-0.107-0.152
					c-0.229,0.123-0.494,0.185-0.799,0.185c-0.298,0-0.563-0.062-0.794-0.185l-0.107,0.156c0.143,0.067,0.29,0.119,0.44,0.156
					C211.067,211.837,211.22,211.856,211.378,211.856z M164.421,211.856c0.321,0,0.623-0.073,0.906-0.216l-0.107-0.152
					c-0.229,0.123-0.495,0.185-0.799,0.185c-0.298,0-0.563-0.062-0.794-0.185l-0.107,0.156c0.144,0.067,0.29,0.119,0.44,0.156
					C164.11,211.837,164.263,211.856,164.421,211.856z M165.133,212.247c-0.064,0.076-0.123,0.144-0.178,0.204
					c-0.126,0.141-0.262,0.288-0.408,0.442l-0.404,0.415l-0.364,0.347v-1.594c-0.079,0.009-0.15,0.014-0.215,0.014
					c-0.074,0-0.146-0.005-0.214-0.014v2.191h0.214c0.058-0.07,0.11-0.135,0.161-0.194c0.053-0.06,0.105-0.122,0.162-0.185
					l0.415-0.445l0.431-0.437l0.343-0.336v1.597c0.074-0.009,0.146-0.013,0.216-0.013l0.097,0.004l0.117,0.009v-2.191h-0.214
					C165.219,212.146,165.166,212.209,165.133,212.247z M148.939,212.345c-0.097-0.101-0.211-0.178-0.343-0.234
					c-0.071-0.029-0.143-0.051-0.216-0.064c-0.073-0.013-0.152-0.02-0.238-0.02c-0.275,0-0.477,0.045-0.6,0.137
					c-0.124,0.091-0.227,0.202-0.307,0.335h-0.01v-0.437l-0.129,0.009l-0.086,0.005l-0.091-0.005l-0.125-0.009v3.363l0.082-0.006
					l0.061-0.005l0.073-0.001l0.067,0.001c0.013,0.003,0.031,0.005,0.057,0.005l0.091,0.006v-1.575h0.01
					c0.181,0.294,0.457,0.44,0.825,0.44c0.348,0,0.628-0.107,0.841-0.323c0.214-0.216,0.32-0.51,0.32-0.882
					c0-0.141-0.023-0.273-0.07-0.399C149.107,212.559,149.035,212.445,148.939,212.345z M148.675,213.609
					c-0.051,0.149-0.131,0.269-0.238,0.356c-0.108,0.088-0.248,0.132-0.422,0.132c-0.263,0-0.459-0.081-0.591-0.246
					c-0.131-0.164-0.197-0.376-0.197-0.635c0-0.119,0.014-0.237,0.042-0.35c0.027-0.115,0.07-0.222,0.129-0.32
					c0.059-0.097,0.138-0.177,0.241-0.237c0.102-0.06,0.226-0.091,0.37-0.091c0.262,0,0.45,0.083,0.566,0.25
					c0.117,0.168,0.176,0.379,0.176,0.635C148.751,213.291,148.727,213.459,148.675,213.609z M145.658,212.169
					c-0.188-0.089-0.403-0.135-0.647-0.135c-0.195,0-0.375,0.027-0.538,0.08s-0.31,0.128-0.433,0.229
					c-0.127,0.101-0.224,0.216-0.29,0.35c-0.067,0.133-0.102,0.281-0.102,0.445c0,0.233,0.056,0.438,0.168,0.613
					c0.112,0.176,0.265,0.311,0.459,0.401c0.194,0.092,0.407,0.138,0.639,0.138c0.206,0,0.396-0.03,0.568-0.092
					c0.171-0.061,0.314-0.146,0.429-0.254c0.114-0.107,0.199-0.23,0.257-0.368c0.058-0.137,0.087-0.278,0.087-0.423
					c0-0.226-0.053-0.422-0.157-0.593S145.847,212.26,145.658,212.169z M145.698,213.576c-0.058,0.16-0.147,0.295-0.272,0.405
					s-0.281,0.165-0.47,0.165c-0.193,0-0.352-0.046-0.478-0.136c-0.125-0.091-0.217-0.206-0.273-0.343
					c-0.057-0.14-0.085-0.292-0.085-0.461c0-0.173,0.028-0.339,0.085-0.496c0.057-0.159,0.15-0.287,0.283-0.386
					c0.132-0.1,0.304-0.149,0.517-0.149c0.144,0,0.267,0.029,0.367,0.089c0.102,0.059,0.182,0.134,0.243,0.225
					c0.059,0.091,0.104,0.191,0.129,0.303s0.04,0.224,0.04,0.337C145.784,213.268,145.755,213.416,145.698,213.576z
					 M140.378,212.284c-0.103-0.083-0.218-0.146-0.347-0.188s-0.269-0.063-0.417-0.063c-0.258,0-0.48,0.049-0.666,0.148
					c-0.187,0.098-0.327,0.232-0.421,0.403c-0.094,0.169-0.142,0.361-0.142,0.576c0,0.229,0.054,0.43,0.161,0.602
					c0.106,0.173,0.255,0.303,0.447,0.392c0.193,0.09,0.414,0.135,0.657,0.135c0.082,0,0.16-0.006,0.236-0.018
					c0.074-0.011,0.152-0.029,0.232-0.054c0.164-0.05,0.315-0.115,0.453-0.2l0.005-0.239c-0.254,0.212-0.519,0.318-0.794,0.318
					c-0.142,0-0.272-0.022-0.393-0.067c-0.121-0.046-0.221-0.108-0.301-0.187c-0.079-0.079-0.139-0.168-0.18-0.27
					c-0.04-0.104-0.06-0.214-0.06-0.333l0.006-0.096h0.757c0.122,0,0.304,0.002,0.545,0.006c0.242,0.005,0.423,0.007,0.542,0.007
					l0.004-0.047l0.002-0.055c0-0.17-0.029-0.32-0.09-0.451C140.559,212.474,140.479,212.366,140.378,212.284z M138.852,212.975
					c0-0.065,0.009-0.129,0.026-0.191c0.019-0.063,0.043-0.128,0.077-0.197c0.061-0.125,0.146-0.224,0.257-0.299
					c0.11-0.073,0.245-0.111,0.399-0.111c0.241,0,0.412,0.075,0.515,0.224c0.051,0.077,0.091,0.162,0.118,0.258
					c0.027,0.097,0.041,0.202,0.041,0.317H138.852z M159.19,213.556l-0.348-0.343l-0.233-0.233l0.3-0.235
					c0.145-0.112,0.291-0.222,0.442-0.331l0.291-0.208l0.149-0.11v-0.033l-0.129,0.009l-0.081,0.005l-0.091-0.005l-0.124-0.009
					l-0.419,0.394l-0.333,0.289c-0.21,0.18-0.366,0.271-0.466,0.271c-0.011-0.007-0.018-0.017-0.021-0.029
					c-0.004-0.015-0.006-0.055-0.006-0.12v-0.804l-0.128,0.009l-0.087,0.005l-0.091-0.005l-0.124-0.009v2.191l0.092-0.009
					l0.058-0.004h0.065l0.068,0.002c0.012,0.002,0.03,0.004,0.057,0.004l0.09,0.007v-0.936c0-0.112,0.021-0.169,0.067-0.169
					c0.032,0,0.073,0.024,0.124,0.073l0.633,0.621c0.18,0.177,0.311,0.314,0.396,0.41l0.111-0.009l0.073-0.004h0.081l0.085,0.002
					c0.013,0.002,0.037,0.004,0.067,0.004l0.109,0.007v-0.023l-0.32-0.314L159.19,213.556z M151.68,212.062
					c-0.068,0.159-0.135,0.313-0.198,0.459c-0.074,0.167-0.145,0.323-0.212,0.467c-0.146,0.313-0.277,0.571-0.395,0.775
					c-0.165-0.302-0.318-0.604-0.459-0.903c-0.141-0.301-0.253-0.566-0.339-0.798l-0.152,0.009l-0.1,0.005l-0.11-0.005l-0.149-0.009
					l1.085,2.173l-0.718,1.19l0.065-0.006l0.052-0.005l0.063-0.001l0.058,0.001c0.011,0.003,0.027,0.005,0.05,0.005l0.076,0.006
					c0.073-0.154,0.133-0.278,0.178-0.372c0.075-0.156,0.139-0.285,0.189-0.386c0.059-0.119,0.127-0.254,0.203-0.404
					c0.062-0.122,0.136-0.264,0.221-0.426l0.482-0.91l0.458-0.865c-0.062,0.009-0.118,0.014-0.17,0.014
					C151.796,212.075,151.737,212.07,151.68,212.062z M137.718,213.04c-0.172-0.098-0.454-0.146-0.847-0.146h-0.379v-0.888h0.44
					l0.494,0.007c0.046,0,0.101,0.004,0.168,0.011c0.065,0.007,0.133,0.015,0.204,0.026c-0.008-0.032-0.012-0.067-0.012-0.104
					c0-0.046,0.004-0.081,0.011-0.107h-1.669v2.4h0.924c0.087,0,0.171-0.011,0.249-0.028c0.08-0.019,0.158-0.044,0.233-0.078
					c0.144-0.064,0.253-0.149,0.328-0.258c0.074-0.106,0.112-0.23,0.112-0.367C137.976,213.292,137.889,213.138,137.718,213.04z
					 M137.506,213.813c-0.058,0.088-0.139,0.156-0.242,0.208c-0.105,0.052-0.225,0.076-0.361,0.076h-0.41v-1.065h0.171l0.176-0.006
					c0.117,0,0.2,0.004,0.251,0.01c0.156,0.013,0.28,0.067,0.368,0.16c0.089,0.094,0.134,0.203,0.134,0.329
					C137.592,213.631,137.563,213.727,137.506,213.813z M153.01,212.467c0.165-0.184,0.394-0.275,0.681-0.275
					c0.094,0,0.191,0.017,0.297,0.05s0.184,0.077,0.236,0.131c0.027,0.024,0.076,0.075,0.143,0.152h0.046l0.123-0.303
					c-0.242-0.125-0.524-0.188-0.849-0.188c-0.271,0-0.512,0.046-0.722,0.135c-0.211,0.089-0.375,0.219-0.492,0.387
					c-0.117,0.169-0.176,0.367-0.176,0.598c0,0.217,0.055,0.411,0.162,0.585c0.106,0.173,0.265,0.308,0.47,0.405
					c0.207,0.099,0.454,0.146,0.741,0.146c0.305,0,0.577-0.075,0.82-0.229l0.027-0.21l-0.032-0.014
					c-0.131,0.102-0.253,0.177-0.363,0.225c-0.111,0.049-0.236,0.072-0.376,0.072c-0.188,0-0.358-0.042-0.509-0.128
					c-0.15-0.084-0.266-0.203-0.348-0.356c-0.081-0.151-0.121-0.325-0.121-0.521c0-0.131,0.021-0.252,0.061-0.36
					C152.868,212.659,152.93,212.559,153.01,212.467z M155.59,212.467c0.166-0.184,0.394-0.275,0.682-0.275
					c0.092,0,0.19,0.017,0.296,0.05s0.184,0.077,0.236,0.131c0.028,0.024,0.077,0.075,0.144,0.152h0.045l0.123-0.303
					c-0.241-0.125-0.523-0.188-0.85-0.188c-0.271,0-0.511,0.046-0.721,0.135c-0.211,0.089-0.375,0.219-0.491,0.387
					c-0.117,0.169-0.176,0.367-0.176,0.598c0,0.217,0.055,0.411,0.16,0.585c0.108,0.173,0.266,0.308,0.471,0.405
					c0.207,0.099,0.453,0.146,0.741,0.146c0.305,0,0.578-0.075,0.82-0.229l0.028-0.21l-0.033-0.014
					c-0.131,0.102-0.252,0.177-0.363,0.225c-0.11,0.049-0.236,0.072-0.376,0.072c-0.188,0-0.357-0.042-0.509-0.128
					c-0.149-0.084-0.265-0.203-0.347-0.356c-0.082-0.151-0.121-0.325-0.121-0.521c0-0.131,0.02-0.252,0.06-0.36
					C155.449,212.659,155.51,212.559,155.59,212.467z M181.348,212.062c-0.069,0.159-0.136,0.313-0.2,0.459
					c-0.073,0.167-0.143,0.323-0.212,0.467c-0.146,0.313-0.275,0.571-0.393,0.775c-0.165-0.302-0.319-0.604-0.459-0.903
					c-0.141-0.301-0.254-0.566-0.34-0.798l-0.152,0.009l-0.1,0.005l-0.11-0.005l-0.149-0.009l1.085,2.173l-0.718,1.19l0.066-0.006
					l0.052-0.005l0.063-0.001l0.057,0.001c0.012,0.003,0.027,0.005,0.05,0.005l0.076,0.006c0.074-0.154,0.133-0.278,0.178-0.372
					c0.076-0.156,0.139-0.285,0.188-0.386c0.06-0.119,0.128-0.254,0.205-0.404c0.061-0.122,0.135-0.264,0.22-0.426l0.482-0.91
					l0.458-0.865c-0.061,0.009-0.118,0.014-0.17,0.014C181.464,212.075,181.404,212.07,181.348,212.062z M222.424,212.466
					c0.165-0.184,0.394-0.274,0.681-0.274c0.093,0,0.191,0.016,0.296,0.05c0.106,0.034,0.185,0.077,0.236,0.131
					c0.029,0.024,0.077,0.075,0.144,0.152h0.045l0.124-0.303c-0.242-0.124-0.524-0.188-0.849-0.188
					c-0.271,0-0.512,0.046-0.722,0.135c-0.211,0.089-0.376,0.218-0.491,0.388c-0.118,0.167-0.176,0.366-0.176,0.598
					c0,0.216,0.054,0.41,0.16,0.583c0.108,0.174,0.265,0.31,0.471,0.407c0.207,0.098,0.454,0.146,0.742,0.146
					c0.304,0,0.577-0.077,0.818-0.23l0.029-0.211l-0.034-0.014c-0.13,0.103-0.252,0.178-0.363,0.226
					c-0.11,0.048-0.235,0.072-0.375,0.072c-0.188,0-0.358-0.043-0.508-0.127c-0.151-0.086-0.267-0.205-0.348-0.356
					c-0.081-0.152-0.121-0.326-0.121-0.521c0-0.131,0.02-0.252,0.059-0.359C222.283,212.659,222.343,212.558,222.424,212.466z
					 M226.364,214.068c-0.022-0.019-0.034-0.039-0.038-0.061c-0.005-0.022-0.008-0.044-0.008-0.067v-1.136
					c0-0.256-0.073-0.448-0.222-0.577c-0.149-0.129-0.364-0.193-0.648-0.193c-0.286,0-0.573,0.084-0.863,0.253v0.256h0.061
					c0.019-0.043,0.055-0.09,0.108-0.138c0.053-0.047,0.126-0.089,0.218-0.124c0.095-0.036,0.197-0.054,0.313-0.054
					c0.198,0,0.354,0.047,0.463,0.142c0.108,0.093,0.163,0.225,0.163,0.396c0,0.071-0.017,0.125-0.051,0.161
					s-0.087,0.064-0.157,0.083s-0.19,0.04-0.36,0.062c-0.232,0.033-0.412,0.067-0.538,0.101c-0.129,0.035-0.236,0.096-0.326,0.184
					c-0.089,0.089-0.133,0.214-0.133,0.376c0,0.166,0.07,0.301,0.214,0.404c0.142,0.104,0.313,0.156,0.509,0.156
					c0.304,0,0.569-0.097,0.795-0.289l0.048-0.042c0.016,0.101,0.056,0.171,0.119,0.212c0.035,0.021,0.075,0.037,0.118,0.051
					c0.047,0.01,0.093,0.017,0.144,0.017c0.055,0,0.108-0.004,0.16-0.014c0.052-0.009,0.108-0.025,0.169-0.046v-0.102
					c-0.068,0.013-0.121,0.021-0.157,0.021C226.417,214.099,226.384,214.089,226.364,214.068z M225.891,213.78
					c-0.004,0.013-0.015,0.026-0.029,0.043l-0.055,0.049l-0.061,0.047c-0.057,0.048-0.125,0.089-0.207,0.122
					c-0.083,0.034-0.157,0.05-0.223,0.05c-0.17,0-0.3-0.036-0.392-0.107c-0.09-0.07-0.135-0.177-0.135-0.317
					c0-0.098,0.028-0.18,0.087-0.244c0.06-0.063,0.132-0.111,0.223-0.143c0.085-0.035,0.167-0.059,0.247-0.072
					c0.028-0.005,0.074-0.014,0.138-0.023c0.062-0.012,0.136-0.022,0.218-0.034l0.188-0.039V213.78z M220.801,212.07l-0.121-0.009
					v0.923l-0.33,0.013l-0.319,0.009l-0.32-0.009l-0.328-0.013v-0.923c-0.073,0.009-0.144,0.014-0.214,0.014
					c-0.08,0-0.152-0.005-0.214-0.014v2.191l0.091-0.009l0.058-0.004h0.065l0.094,0.004l0.12,0.009v-1.067l0.263-0.01h0.771
					l0.264,0.015v1.063c0.073-0.009,0.146-0.013,0.215-0.013l0.097,0.004l0.117,0.009v-2.191c-0.078,0.009-0.149,0.014-0.214,0.014
					L220.801,212.07z M218.117,214.068c-0.021-0.019-0.033-0.039-0.037-0.062c-0.005-0.021-0.007-0.044-0.007-0.066v-1.137
					c0-0.254-0.074-0.447-0.223-0.575c-0.148-0.129-0.364-0.194-0.647-0.194c-0.287,0-0.574,0.084-0.864,0.253v0.255h0.061
					c0.02-0.042,0.056-0.088,0.108-0.137c0.054-0.047,0.127-0.089,0.219-0.125c0.094-0.036,0.197-0.053,0.313-0.053
					c0.198,0,0.353,0.046,0.461,0.141c0.11,0.095,0.164,0.226,0.164,0.396c0,0.072-0.017,0.127-0.051,0.162
					c-0.034,0.037-0.086,0.064-0.157,0.083c-0.071,0.02-0.19,0.039-0.36,0.063c-0.232,0.032-0.412,0.065-0.539,0.101
					c-0.129,0.033-0.235,0.096-0.324,0.183c-0.09,0.089-0.134,0.214-0.134,0.377c0,0.165,0.071,0.3,0.215,0.403
					c0.142,0.104,0.311,0.155,0.507,0.155c0.306,0,0.57-0.096,0.796-0.287l0.048-0.043c0.017,0.1,0.056,0.171,0.12,0.212
					c0.034,0.021,0.074,0.038,0.117,0.05c0.046,0.012,0.093,0.019,0.144,0.019c0.055,0,0.108-0.006,0.16-0.015
					c0.053-0.009,0.109-0.024,0.169-0.047v-0.101c-0.068,0.014-0.12,0.02-0.157,0.02
					C218.171,214.098,218.138,214.088,218.117,214.068z M217.644,213.779c-0.003,0.014-0.014,0.027-0.028,0.044l-0.055,0.049
					l-0.061,0.048c-0.056,0.047-0.125,0.087-0.207,0.121c-0.082,0.033-0.157,0.051-0.224,0.051c-0.169,0-0.299-0.037-0.391-0.108
					c-0.09-0.071-0.135-0.177-0.135-0.317c0-0.098,0.028-0.181,0.087-0.244c0.06-0.063,0.133-0.112,0.223-0.144
					c0.085-0.033,0.167-0.057,0.247-0.071c0.029-0.005,0.074-0.014,0.138-0.024c0.063-0.011,0.135-0.021,0.218-0.034l0.188-0.037
					V213.779z M212.09,212.247c-0.063,0.076-0.122,0.144-0.178,0.204c-0.126,0.141-0.262,0.288-0.408,0.442l-0.403,0.415
					l-0.365,0.347v-1.594c-0.078,0.009-0.149,0.014-0.215,0.014c-0.074,0-0.146-0.005-0.214-0.014v2.191h0.214
					c0.058-0.07,0.111-0.135,0.162-0.194c0.052-0.06,0.104-0.122,0.161-0.185l0.416-0.445l0.43-0.437l0.343-0.336v1.597
					c0.074-0.009,0.146-0.013,0.215-0.013l0.098,0.004l0.117,0.009v-2.191h-0.215C212.176,212.146,212.124,212.209,212.09,212.247z
					 M232.562,212.17c-0.188-0.09-0.403-0.136-0.647-0.136c-0.186,0-0.361,0.022-0.527,0.066c-0.165,0.044-0.308,0.108-0.429,0.19
					c0-0.185,0.048-0.349,0.145-0.491c0.098-0.145,0.238-0.254,0.423-0.334c0.183-0.078,0.403-0.118,0.656-0.118
					c0.157,0,0.306,0.004,0.438,0.012c0.134,0.006,0.261,0.019,0.384,0.034c-0.012-0.052-0.018-0.097-0.018-0.133
					c0.003-0.015,0.005-0.032,0.005-0.057l0.005-0.047l0.008-0.04c-0.503,0-0.911,0.027-1.224,0.081
					c-0.314,0.055-0.561,0.153-0.739,0.297c-0.18,0.144-0.306,0.344-0.379,0.603c-0.073,0.257-0.11,0.604-0.11,1.04
					c0,0.233,0.057,0.438,0.169,0.613c0.11,0.177,0.264,0.311,0.459,0.401c0.193,0.093,0.406,0.139,0.638,0.139
					c0.207,0,0.397-0.031,0.568-0.092c0.171-0.062,0.314-0.146,0.429-0.255c0.113-0.108,0.199-0.23,0.257-0.368
					c0.059-0.136,0.087-0.279,0.087-0.422c0-0.226-0.053-0.424-0.157-0.595C232.896,212.391,232.75,212.26,232.562,212.17z
					 M232.602,213.576c-0.057,0.159-0.147,0.295-0.272,0.404c-0.124,0.111-0.281,0.167-0.47,0.167c-0.192,0-0.352-0.046-0.477-0.137
					c-0.127-0.092-0.218-0.206-0.275-0.344c-0.056-0.139-0.084-0.291-0.084-0.46c0-0.172,0.028-0.338,0.084-0.497
					c0.058-0.157,0.152-0.286,0.284-0.386c0.131-0.099,0.304-0.147,0.518-0.147c0.143,0,0.266,0.028,0.366,0.087
					s0.183,0.135,0.243,0.225c0.06,0.092,0.104,0.192,0.129,0.304c0.027,0.111,0.04,0.224,0.04,0.337
					C232.688,213.268,232.658,213.417,232.602,213.576z M234.827,212.065l-0.095,0.015h-0.137l-0.096-0.015
					c-0.223,0.553-0.587,1.282-1.093,2.191l0.072-0.007l0.045-0.004l0.053-0.002l0.058,0.002c0.011,0.003,0.028,0.004,0.05,0.004
					l0.066,0.007l0.427-0.989l0.198-0.397c0.107-0.214,0.183-0.339,0.226-0.377c0.124,0.24,0.235,0.465,0.333,0.677
					c0.051,0.104,0.098,0.206,0.142,0.303c0.046,0.098,0.087,0.193,0.125,0.286c0.079,0.178,0.146,0.344,0.199,0.498l0.1-0.007
					l0.063-0.004l0.072-0.002h0.074c0.01,0.003,0.021,0.005,0.034,0.005h0.031l0.105,0.008c-0.174-0.329-0.363-0.711-0.57-1.144
					C235.106,212.681,234.943,212.332,234.827,212.065z M238.038,213.135c-0.161-0.106-0.374-0.16-0.636-0.16h-0.633v-0.913
					c-0.051,0.008-0.122,0.014-0.208,0.014c-0.096,0-0.168-0.006-0.221-0.014v2.178h1.015c0.145,0,0.29-0.028,0.438-0.084
					c0.146-0.058,0.265-0.134,0.354-0.23s0.135-0.202,0.135-0.318C238.282,213.398,238.201,213.242,238.038,213.135z
					 M237.727,213.846c-0.063,0.068-0.146,0.121-0.25,0.156c-0.102,0.036-0.206,0.055-0.315,0.055h-0.145l-0.247-0.01v-0.889h0.462
					c0.166,0,0.307,0.036,0.42,0.108c0.113,0.073,0.17,0.186,0.17,0.34C237.821,213.698,237.79,213.779,237.727,213.846z
					 M229.955,213.095l-0.077-0.514l-0.066-0.516h-0.145c-0.405,0.688-0.762,1.256-1.07,1.707c-0.044-0.057-0.099-0.127-0.161-0.213
					c-0.053-0.073-0.115-0.164-0.188-0.271c-0.14-0.208-0.277-0.417-0.411-0.629c-0.069-0.108-0.133-0.211-0.19-0.305
					c-0.057-0.096-0.112-0.191-0.169-0.289h-0.145l-0.096,0.684l-0.087,0.587c-0.022,0.148-0.052,0.314-0.088,0.496
					s-0.066,0.323-0.093,0.421l0.063-0.007l0.037-0.004l0.05-0.003h0.05c0.005,0.003,0.016,0.005,0.032,0.005l0.052,0.009
					l0.016-0.302l0.05-0.419l0.06-0.417l0.058-0.358c0.069,0.09,0.149,0.204,0.244,0.342l0.26,0.389l0.259,0.408
					c0.094,0.146,0.164,0.268,0.215,0.357h0.123c0.319-0.546,0.642-1.045,0.965-1.496c0.019,0.102,0.035,0.223,0.05,0.363
					c0.005,0.044,0.014,0.107,0.028,0.192c0.009,0.065,0.013,0.128,0.013,0.183c0.011,0.086,0.018,0.152,0.022,0.198
					c0.003,0.047,0.007,0.097,0.007,0.15c0,0.033,0.004,0.095,0.012,0.186c0.009,0.091,0.014,0.166,0.014,0.224l0.095-0.007
					l0.065-0.004l0.076-0.003h0.068c0.01,0.003,0.021,0.005,0.034,0.005h0.031l0.102,0.009l-0.06-0.437L229.955,213.095z
					 M209.052,212.062v2.191l0.081-0.009l0.057-0.004h0.146c0.011,0.004,0.032,0.006,0.06,0.006l0.084,0.007v-2.191
					c-0.071,0.009-0.143,0.014-0.215,0.014C209.186,212.075,209.114,212.07,209.052,212.062z M202.711,212.07l-0.121-0.009v0.923
					l-0.33,0.013l-0.32,0.009l-0.319-0.009l-0.328-0.013v-0.923c-0.073,0.009-0.144,0.014-0.214,0.014
					c-0.081,0-0.152-0.005-0.215-0.014v2.191l0.091-0.009l0.059-0.004h0.065l0.093,0.004l0.121,0.009v-1.067l0.262-0.01h0.771
					l0.265,0.015v1.063c0.073-0.009,0.145-0.013,0.215-0.013l0.096,0.004l0.118,0.009v-2.191c-0.078,0.009-0.15,0.014-0.214,0.014
					L202.711,212.07z M189.637,212.345c-0.097-0.101-0.211-0.178-0.344-0.234c-0.07-0.029-0.142-0.051-0.215-0.064
					c-0.074-0.013-0.152-0.02-0.238-0.02c-0.276,0-0.477,0.045-0.6,0.137c-0.125,0.091-0.227,0.202-0.308,0.335h-0.009v-0.437
					l-0.13,0.009l-0.086,0.005l-0.091-0.005l-0.124-0.009v3.363l0.081-0.006l0.061-0.005l0.073-0.001l0.068,0.001
					c0.013,0.003,0.031,0.005,0.057,0.005l0.091,0.006v-1.575h0.009c0.182,0.294,0.458,0.44,0.826,0.44
					c0.348,0,0.627-0.107,0.84-0.323c0.214-0.216,0.321-0.51,0.321-0.882c0-0.141-0.024-0.273-0.07-0.399
					C189.805,212.559,189.732,212.445,189.637,212.345z M189.372,213.609c-0.051,0.149-0.131,0.269-0.239,0.356
					c-0.107,0.088-0.248,0.132-0.422,0.132c-0.262,0-0.458-0.081-0.59-0.246c-0.132-0.164-0.197-0.376-0.197-0.635
					c0-0.119,0.014-0.237,0.041-0.35c0.027-0.115,0.071-0.222,0.129-0.32c0.06-0.097,0.139-0.177,0.242-0.237
					c0.102-0.06,0.226-0.091,0.369-0.091c0.262,0,0.451,0.083,0.567,0.25c0.117,0.168,0.176,0.379,0.176,0.635
					C189.448,213.291,189.423,213.459,189.372,213.609z M191.025,212.467c0.165-0.184,0.393-0.275,0.68-0.275
					c0.094,0,0.192,0.017,0.297,0.05c0.105,0.033,0.184,0.077,0.236,0.131c0.028,0.024,0.077,0.075,0.143,0.152h0.045l0.124-0.303
					c-0.242-0.125-0.523-0.188-0.849-0.188c-0.271,0-0.512,0.046-0.722,0.135c-0.211,0.089-0.374,0.219-0.491,0.387
					c-0.117,0.169-0.176,0.367-0.176,0.598c0,0.217,0.054,0.411,0.161,0.585c0.107,0.173,0.265,0.308,0.471,0.405
					c0.206,0.099,0.453,0.146,0.741,0.146c0.304,0,0.577-0.075,0.819-0.229l0.028-0.21l-0.034-0.014
					c-0.13,0.102-0.251,0.177-0.362,0.225c-0.11,0.049-0.235,0.072-0.376,0.072c-0.188,0-0.358-0.042-0.508-0.128
					c-0.151-0.084-0.267-0.203-0.348-0.356c-0.081-0.151-0.121-0.325-0.121-0.521c0-0.131,0.019-0.252,0.06-0.36
					C190.884,212.659,190.945,212.559,191.025,212.467z M208.338,213.044c-0.134-0.046-0.282-0.069-0.446-0.069h-0.632v-0.913
					c-0.063,0.009-0.133,0.014-0.209,0.014c-0.09,0-0.162-0.005-0.221-0.014v2.179h1.015c0.145,0,0.29-0.028,0.438-0.086
					c0.146-0.058,0.265-0.133,0.354-0.229c0.09-0.096,0.134-0.202,0.134-0.318c0-0.138-0.037-0.254-0.116-0.35
					C208.578,213.161,208.471,213.09,208.338,213.044z M208.212,213.848c-0.065,0.068-0.148,0.12-0.251,0.156
					c-0.101,0.034-0.204,0.052-0.311,0.052h-0.187l-0.204-0.009v-0.889h0.461c0.165,0,0.306,0.036,0.419,0.109
					c0.114,0.071,0.171,0.186,0.171,0.339C208.311,213.698,208.277,213.779,208.212,213.848z M186.719,214.068
					c-0.021-0.019-0.034-0.039-0.038-0.062c-0.005-0.021-0.007-0.044-0.007-0.066v-1.137c0-0.254-0.074-0.447-0.223-0.575
					c-0.148-0.129-0.364-0.194-0.647-0.194c-0.286,0-0.573,0.084-0.864,0.253v0.255H185c0.02-0.042,0.056-0.088,0.109-0.137
					c0.053-0.047,0.126-0.089,0.218-0.125c0.094-0.036,0.197-0.053,0.313-0.053c0.199,0,0.353,0.046,0.462,0.141
					c0.11,0.095,0.163,0.226,0.163,0.396c0,0.072-0.016,0.127-0.051,0.162c-0.034,0.037-0.086,0.064-0.157,0.083
					c-0.07,0.02-0.189,0.039-0.36,0.063c-0.232,0.032-0.412,0.065-0.539,0.101c-0.128,0.033-0.235,0.096-0.324,0.183
					c-0.09,0.089-0.134,0.214-0.134,0.377c0,0.165,0.071,0.3,0.215,0.403c0.142,0.104,0.312,0.155,0.508,0.155
					c0.305,0,0.57-0.096,0.796-0.287l0.047-0.043c0.017,0.1,0.056,0.171,0.12,0.212c0.035,0.021,0.075,0.038,0.118,0.05
					c0.045,0.012,0.092,0.019,0.143,0.019c0.055,0,0.109-0.006,0.16-0.015c0.053-0.009,0.109-0.024,0.169-0.047v-0.101
					c-0.067,0.014-0.12,0.02-0.156,0.02C186.771,214.098,186.739,214.088,186.719,214.068z M186.245,213.779
					c-0.004,0.014-0.015,0.027-0.029,0.044l-0.055,0.049l-0.061,0.048c-0.056,0.047-0.125,0.087-0.207,0.121
					c-0.082,0.033-0.156,0.051-0.224,0.051c-0.168,0-0.299-0.037-0.39-0.108c-0.09-0.071-0.136-0.177-0.136-0.317
					c0-0.098,0.028-0.181,0.087-0.244c0.06-0.063,0.133-0.112,0.223-0.144c0.085-0.033,0.167-0.057,0.249-0.071
					c0.027-0.005,0.072-0.014,0.136-0.024c0.063-0.011,0.135-0.021,0.218-0.034l0.188-0.037V213.779z M192.757,212.075l0.019,0.125
					l-0.019,0.123c0.223-0.026,0.531-0.04,0.924-0.04v1.97l0.091-0.009l0.059-0.004h0.065l0.068,0.002
					c0.012,0.002,0.032,0.004,0.059,0.004l0.087,0.007v-1.97c0.411,0,0.719,0.014,0.922,0.04l-0.01-0.123l0.01-0.125H192.757z
					 M184.244,214.032c-0.395-0.77-0.704-1.426-0.934-1.966h-0.051l-0.065,0.01l-0.052,0.004l-0.039-0.004l-0.044-0.01h-0.075
					c-0.042,0.095-0.085,0.195-0.132,0.3c-0.048,0.104-0.099,0.216-0.155,0.333c-0.125,0.26-0.242,0.492-0.348,0.7l-0.338,0.633
					h-0.221c0.01,0.049,0.016,0.105,0.016,0.171c0,0.085-0.006,0.142-0.016,0.168h0.044c0.088-0.059,0.194-0.097,0.316-0.109
					c0.123-0.016,0.312-0.021,0.562-0.021h0.808c0.059,0.001,0.121,0.003,0.188,0.004c0.065,0.001,0.136,0.002,0.213,0.002
					c0.042,0,0.087,0.003,0.136,0.01c0.048,0.007,0.093,0.015,0.131,0.024c0.084,0.02,0.157,0.051,0.217,0.091h0.037
					c-0.006-0.022-0.009-0.08-0.009-0.168l0.009-0.171H184.244z M182.328,214.032c0.064-0.15,0.126-0.291,0.184-0.421
					c0.065-0.146,0.135-0.295,0.207-0.444l0.327-0.678h0.039c0.341,0.659,0.579,1.174,0.718,1.543H182.328z M205.694,212.07
					l-0.121-0.009v0.923l-0.329,0.013l-0.32,0.009l-0.32-0.009l-0.328-0.013v-0.923c-0.072,0.009-0.145,0.014-0.215,0.014
					c-0.079,0-0.151-0.005-0.213-0.014v2.191l0.091-0.009l0.058-0.004h0.064l0.095,0.004l0.12,0.009v-1.067l0.263-0.01h0.771
					l0.265,0.015v1.063c0.073-0.009,0.145-0.013,0.215-0.013l0.097,0.004l0.117,0.009v-2.191c-0.078,0.009-0.15,0.014-0.214,0.014
					L205.694,212.07z M196.851,213.071c0.177-0.022,0.315-0.073,0.416-0.153c0.102-0.079,0.152-0.183,0.152-0.312
					c0-0.127-0.038-0.231-0.113-0.309c-0.077-0.079-0.183-0.135-0.317-0.17s-0.288-0.053-0.46-0.053h-1.029v2.165h-0.414
					l1.561,0.004c0.083,0,0.162-0.006,0.239-0.018c0.076-0.012,0.151-0.029,0.22-0.052c0.146-0.05,0.26-0.119,0.343-0.208
					c0.084-0.089,0.126-0.199,0.126-0.327c0-0.188-0.063-0.321-0.192-0.401C197.253,213.158,197.075,213.104,196.851,213.071z
					 M195.928,212.254h0.524c0.15,0,0.271,0.029,0.36,0.086c0.091,0.06,0.135,0.15,0.135,0.276c0,0.26-0.172,0.39-0.516,0.39h-0.504
					V212.254z M197.007,213.868c-0.054,0.063-0.125,0.112-0.213,0.145s-0.19,0.048-0.309,0.048h-0.558v-0.885h0.558
					c0.132,0,0.241,0.016,0.33,0.047c0.088,0.031,0.156,0.08,0.201,0.15c0.046,0.069,0.07,0.157,0.07,0.267
					C197.087,213.729,197.059,213.804,197.007,213.868z M199.947,212.284c-0.103-0.083-0.217-0.146-0.346-0.188
					c-0.13-0.042-0.27-0.063-0.417-0.063c-0.259,0-0.481,0.049-0.667,0.148c-0.187,0.098-0.326,0.232-0.421,0.403
					c-0.094,0.169-0.141,0.361-0.141,0.576c0,0.229,0.054,0.43,0.16,0.602c0.107,0.173,0.255,0.303,0.448,0.392
					c0.193,0.09,0.412,0.135,0.656,0.135c0.083,0,0.161-0.006,0.235-0.018c0.076-0.011,0.154-0.029,0.233-0.054
					c0.165-0.05,0.316-0.115,0.453-0.2l0.006-0.239c-0.256,0.212-0.521,0.318-0.794,0.318c-0.142,0-0.272-0.022-0.393-0.067
					c-0.121-0.046-0.222-0.108-0.301-0.187c-0.079-0.079-0.141-0.168-0.18-0.27c-0.04-0.104-0.061-0.214-0.061-0.333l0.007-0.096
					h0.757c0.121,0,0.303,0.002,0.544,0.006c0.242,0.005,0.422,0.007,0.543,0.007l0.003-0.047l0.003-0.055
					c0-0.17-0.03-0.32-0.09-0.451C200.129,212.474,200.048,212.366,199.947,212.284z M198.421,212.975
					c0-0.065,0.009-0.129,0.027-0.191c0.018-0.063,0.042-0.128,0.076-0.197c0.061-0.125,0.146-0.224,0.258-0.299
					c0.109-0.073,0.244-0.111,0.399-0.111c0.24,0,0.411,0.075,0.513,0.224c0.052,0.077,0.093,0.162,0.119,0.258
					c0.028,0.097,0.042,0.202,0.042,0.317H198.421z"/>
			</g>
		</g>
	</g>
	<g id="Фигура_3">
		<g>
			<path fill-rule="evenodd" clip-rule="evenodd" fill="#DC202C" d="M206.932,114.183c-8.486-23.31-30.115-40.297-55.932-41.998
				v8.351c22.131,1.679,40.641,16.273,48.018,36.271l-8.161,2.705l19.937,14.464l4.717-22.636L206.932,114.183z"/>
		</g>
	</g>
</g>
</svg>
