<?xml version="1.0" encoding="utf-8"?>
<!DOCTYPE svg PUBLIC "-//W3C//DTD SVG 1.1//EN" "http://www.w3.org/Graphics/SVG/1.1/DTD/svg11.dtd">
<svg version="1.1" id="search_icon" xmlns="http://www.w3.org/2000/svg" xmlns:xlink="http://www.w3.org/1999/xlink" x="0px" y="0px"
	 width="40px" height="40px" viewBox="0 0 40 40" enable-background="new 0 0 40 40" xml:space="preserve">
	<g id="icon_search_g">
		<path fill-rule="evenodd" clip-rule="evenodd" fill="#333" stroke="#fff" stroke-width="1" stroke-linejoin="round" d="M34.779,31.244l-2.921-2.922c1.745-2.451,2.782-5.442,2.782-8.682
			c0-8.284-6.716-15-15-15s-15,6.716-15,15s6.716,15,15,15c3.239,0,6.23-1.037,8.682-2.782l2.922,2.921
			c0.781,0.781,2.047,0.781,2.828,0l0.707-0.707C35.561,33.291,35.561,32.025,34.779,31.244z M19.641,30.141
			c-5.799,0-10.5-4.701-10.5-10.5s4.701-10.5,10.5-10.5s10.5,4.701,10.5,10.5S25.439,30.141,19.641,30.141z"/>
	</g>
</svg>