<?xml version="1.0" encoding="utf-8"?>
<!-- Generator: Adobe Illustrator 15.1.0, SVG Export Plug-In . SVG Version: 6.00 Build 0)  -->
<!DOCTYPE svg PUBLIC "-//W3C//DTD SVG 1.1//EN" "http://www.w3.org/Graphics/SVG/1.1/DTD/svg11.dtd">
<svg version="1.1" id="sound_1_" xmlns="http://www.w3.org/2000/svg" xmlns:xlink="http://www.w3.org/1999/xlink" x="0px" y="0px"
	 width="128px" height="128px" viewBox="0 0 128 128" enable-background="new 0 0 128 128" xml:space="preserve">
<g id="sound">
	<g>
		<path fill-rule="evenodd" clip-rule="evenodd" fill="#4c4c4b" d="M73.435,48.399l-5.709,5.709
			c3.146,2.163,5.212,5.785,5.212,9.892c0,4.079-2.04,7.678-5.15,9.846l5.709,5.709c4.535-3.666,7.441-9.269,7.441-15.555
			C80.938,57.687,78.005,52.064,73.435,48.399z M84.704,37.131l-5.868,5.868c5.934,5.062,9.701,12.59,9.701,21.001
			c0,8.385-3.743,15.89-9.645,20.952l5.868,5.868C92.154,84.248,96.817,74.671,96.817,64C96.817,53.302,92.13,43.704,84.704,37.131z
			 M96.909,24.926l-6.356,6.355C99.468,39.356,105.07,51.023,105.07,64c0,12.949-5.577,24.596-14.461,32.669l6.354,6.354
			C107.47,93.318,114.056,79.431,114.056,64C114.056,48.542,107.447,34.632,96.909,24.926z M18.938,47c-2.762,0-5,2.238-5,5v24
			c0,2.762,2.238,5,5,5h19l24,25.84V21.16l-24,25.84H18.938z"/>
	</g>
</g>
</svg>